<svg width="18" height="18" viewBox="0 0 18 18" fill="none" xmlns="http://www.w3.org/2000/svg">
<path d="M7.50146 1.08655H10.5098V1.59274H11.5962V1.01569C11.5963 0.455658 11.141 0 10.5812 0H7.43005C6.8703 0 6.41492 0.455658 6.41492 1.01569V1.59274H7.50146V1.08655Z" fill="#E56868"/>
<path d="M14.1048 5.89746H3.90566C3.62619 5.89746 3.40619 6.13586 3.42871 6.41451L4.28139 16.9581C4.3289 17.5467 4.81986 18 5.40968 18H12.6006C13.1905 18 13.6814 17.5467 13.7289 16.9579L14.5816 6.41451C14.6043 6.13586 14.3843 5.89746 14.1048 5.89746ZM6.37524 16.8754C6.36385 16.8761 6.35245 16.8765 6.34119 16.8765C6.05637 16.8765 5.81728 16.6547 5.79956 16.3666L5.26521 7.71089C5.24681 7.41138 5.47464 7.15361 5.77402 7.13521C6.07243 7.11708 6.3313 7.34436 6.3497 7.64401L6.88391 16.2997C6.90245 16.5992 6.67462 16.8569 6.37524 16.8754ZM9.55455 16.3332C9.55455 16.6332 9.31134 16.8764 9.01128 16.8764C8.71121 16.8764 8.468 16.6332 8.468 16.3332V7.67738C8.468 7.37732 8.71121 7.13411 9.01128 7.13411C9.3112 7.13411 9.55455 7.37732 9.55455 7.67738V16.3332ZM12.7453 7.70938L12.2351 16.3651C12.2182 16.6538 11.9787 16.8764 11.6933 16.8764C11.6826 16.8764 11.6718 16.8761 11.6609 16.8755C11.3614 16.8578 11.1329 16.6008 11.1506 16.3012L11.6606 7.64539C11.6782 7.34587 11.9345 7.11736 12.2348 7.13507C12.5343 7.15265 12.7628 7.40987 12.7453 7.70938Z" fill="#E56868"/>
<path d="M15.9837 4.22086L15.6269 3.15134C15.5329 2.8694 15.2689 2.6792 14.9716 2.6792H3.03921C2.74203 2.6792 2.47795 2.8694 2.38401 3.15134L2.02723 4.22086C1.95843 4.42712 2.04797 4.63751 2.2151 4.74243C2.28322 4.78514 2.36383 4.81082 2.4524 4.81082H15.5585C15.6471 4.81082 15.7279 4.78514 15.7958 4.74229C15.963 4.63737 16.0525 4.42699 15.9837 4.22086Z" fill="#E56868"/>
</svg>
